<?xml version="1.0" encoding="UTF-8"?>
<svg version="1.1" xmlns="http://www.w3.org/2000/svg" width="220" height="223">
<path d="M0 0 C72.6 0 145.2 0 220 0 C220 73.59 220 147.18 220 223 C147.4 223 74.8 223 0 223 C0 149.41 0 75.82 0 0 Z " fill="#021D3A" transform="translate(0,0)"/>
<path d="M0 0 C10.02242673 7.45620053 17.6897772 16.10283545 20.9375 28.44140625 C22.54168887 40.89051725 20.93535217 54.78275597 13.9375 65.44140625 C11.5 68.12890625 11.5 68.12890625 8.9375 70.44140625 C8.050625 71.36953125 7.16375 72.29765625 6.25 73.25390625 C3.9375 75.44140625 3.9375 75.44140625 1.9375 75.44140625 C1.9375 76.10140625 1.9375 76.76140625 1.9375 77.44140625 C0.21593904 78.45444387 -1.51511806 79.45135473 -3.25 80.44140625 C-4.21292969 80.99828125 -5.17585938 81.55515625 -6.16796875 82.12890625 C-9.11138743 83.46357383 -10.88130057 83.72056086 -14.0625 83.44140625 C-14.0625 84.10140625 -14.0625 84.76140625 -14.0625 85.44140625 C-37.02092172 86.04853395 -37.02092172 86.04853395 -45.0625 82.44140625 C-45.7225 81.78140625 -46.3825 81.12140625 -47.0625 80.44140625 C-48.155625 80.00828125 -49.24875 79.57515625 -50.375 79.12890625 C-56.88991352 76.4098721 -61.37490174 70.31122247 -65.0625 64.44140625 C-65.734375 62.1953125 -65.734375 62.1953125 -66.0625 60.44140625 C-66.7225 60.44140625 -67.3825 60.44140625 -68.0625 60.44140625 C-70.15600689 57.03945755 -70.24192163 54.38868213 -70.0625 50.44140625 C-70.7225 50.44140625 -71.3825 50.44140625 -72.0625 50.44140625 C-73.09867384 26.55520816 -73.09867384 26.55520816 -67.0625 16.44140625 C-66.6396875 15.64992188 -66.216875 14.8584375 -65.78125 14.04296875 C-59.95364111 4.11570478 -49.97758213 -3.16398004 -38.91015625 -6.13671875 C-25.54222528 -8.11715297 -11.44211345 -7.72804034 0 0 Z " fill="#FBFCFC" transform="translate(134.0625,77.55859375)"/>
<path d="M0 0 C4.37109734 0.74700648 8.27306246 2.61864287 12.30859375 4.39453125 C13.845969 4.98908252 15.38730856 5.57355315 16.93359375 6.14453125 C18.04734375 6.55703125 19.16109375 6.96953125 20.30859375 7.39453125 C20.30859375 8.05453125 20.30859375 8.71453125 20.30859375 9.39453125 C20.84613281 9.48089844 21.38367188 9.56726562 21.9375 9.65625 C37.22022783 14.41479293 52.65406137 32.0212982 59.984375 45.46875 C61.01785369 47.5126272 62.02538958 49.56987215 63.00390625 51.640625 C64.06497859 53.88031362 65.21317351 55.99223974 66.43359375 58.14453125 C69.59785605 64.3936183 70.7456733 71.61453833 72.30859375 78.39453125 C72.48801514 79.02061279 72.66743652 79.64669434 72.85229492 80.29174805 C73.39455047 82.79064963 73.43825223 85.09120354 73.44140625 87.6484375 C73.44269531 88.66873047 73.44398438 89.68902344 73.4453125 90.74023438 C73.44144531 91.80177734 73.43757813 92.86332031 73.43359375 93.95703125 C73.43746094 94.99150391 73.44132812 96.02597656 73.4453125 97.09179688 C73.43766765 103.19621341 73.10499345 109.08717611 72.22998047 115.13256836 C72.07813465 117.47264469 72.07813465 117.47264469 73.72705078 119.07641602 C74.24895996 119.51139404 74.77086914 119.94637207 75.30859375 120.39453125 C76.65691479 123.09117333 76.47770057 125.26040646 76.49609375 128.26953125 C76.51027344 129.31882813 76.52445312 130.368125 76.5390625 131.44921875 C76.31364312 134.33000196 75.79823692 135.95693333 74.30859375 138.39453125 C73.64859375 138.39453125 72.98859375 138.39453125 72.30859375 138.39453125 C72.06109375 138.99265625 71.81359375 139.59078125 71.55859375 140.20703125 C69.81493792 143.25842895 67.77632914 144.83780403 64.49609375 146.08203125 C60.2344634 146.69083559 56.40252291 146.7591743 52.30859375 145.39453125 C52.30859375 144.73453125 52.30859375 144.07453125 52.30859375 143.39453125 C51.41914063 143.00974609 51.41914063 143.00974609 50.51171875 142.6171875 C46.65635497 140.47759732 44.34003033 137.25953722 42.30859375 133.39453125 C41.38731879 128.6134319 41.6836538 123.55068617 44.30859375 119.39453125 C48.38563041 115.12509511 51.42252929 112.41312124 57.30859375 111.39453125 C57.43437984 106.96957004 57.52393178 102.54561866 57.58325195 98.11938477 C57.60803858 96.62115304 57.64187961 95.12303734 57.68579102 93.62524414 C58.07995318 79.81101973 55.69052649 68.31983242 48.4140625 56.296875 C47.30859375 54.39453125 47.30859375 54.39453125 45.99609375 50.95703125 C42.31179813 43.17907382 36.44472687 37.10343775 29.77734375 31.76953125 C29.29265625 31.31578125 28.80796875 30.86203125 28.30859375 30.39453125 C28.30859375 29.73453125 28.30859375 29.07453125 28.30859375 28.39453125 C27.52484375 28.18828125 26.74109375 27.98203125 25.93359375 27.76953125 C21.85275583 26.22162721 18.42494805 24.14674259 14.72265625 21.859375 C11.98036142 20.19536115 9.20521692 18.76661591 6.30859375 17.39453125 C6.30859375 16.73453125 6.30859375 16.07453125 6.30859375 15.39453125 C5.47714844 15.28496094 4.64570313 15.17539062 3.7890625 15.0625 C2.70238281 14.90394531 1.61570313 14.74539062 0.49609375 14.58203125 C-0.58285156 14.43121094 -1.66179687 14.28039063 -2.7734375 14.125 C-5.78180674 13.37190087 -6.92417929 12.89658453 -8.69140625 10.39453125 C-9.10757144 7.13457061 -8.96802505 5.0515009 -7.69140625 2.01953125 C-5.17113299 -0.02819078 -3.19825969 -0.15844589 0 0 Z " fill="#F3F6F7" transform="translate(133.69140625,21.60546875)"/>
<path d="M0 0 C3.56475772 3.47335368 4.61361748 6.07362293 5 11 C5.2165625 12.918125 5.2165625 12.918125 5.4375 14.875 C5.37846109 20.00154532 2.56031028 23.51691988 -1 27 C-4.87180326 29.8660547 -7.71157217 30.43190604 -12.5 30.4375 C-13.6034375 30.45683594 -14.706875 30.47617187 -15.84375 30.49609375 C-19.62201874 29.9022322 -21.15602698 28.46963811 -24 26 C-30.39721045 25.60833405 -35.02844107 29.12421224 -40.328125 32.40625 C-43 34 -43 34 -46 35 C-46 35.66 -46 36.32 -46 37 C-47.38780769 37.902075 -48.77637596 38.80299389 -50.16796875 39.69921875 C-65.50524137 50.58900933 -74.61922101 69.83097849 -78.59375 87.6640625 C-80.04815344 99.60695225 -80.52698641 113.12812372 -76.65625 124.6328125 C-75.8534166 127.52874728 -75.7986196 130.00806261 -76 133 C-77.5625 135.375 -77.5625 135.375 -80 137 C-83.75 137.25 -83.75 137.25 -87 137 C-87.80406791 135.21386441 -88.59249637 133.42068751 -89.375 131.625 C-90.03628906 130.12839844 -90.03628906 130.12839844 -90.7109375 128.6015625 C-93.6839396 120.29517482 -94.38846726 112.15281723 -94.375 103.375 C-94.37411377 102.32828125 -94.37322754 101.2815625 -94.37231445 100.203125 C-94.23722926 91.27241689 -92.82978848 83.46871006 -90 75 C-89.74992187 74.23171875 -89.49984375 73.4634375 -89.2421875 72.671875 C-88.5612179 70.74637474 -87.79415555 68.88148068 -87 67 C-86.64164063 66.06800781 -86.28328125 65.13601562 -85.9140625 64.17578125 C-82.75967307 56.16925777 -79.12514146 49.10927322 -73 43 C-71.97971135 41.68212715 -70.98028616 40.34789347 -70 39 C-68.15757844 36.46667036 -66.37164121 34.06229671 -64 32 C-63.34 32 -62.68 32 -62 32 C-62 31.34 -62 30.68 -62 30 C-56.58823529 26 -56.58823529 26 -54 26 C-53.505 24.515 -53.505 24.515 -53 23 C-49.50653273 20.33831065 -46.00294965 18.49281459 -41.9375 16.859375 C-38.80277803 15.46897413 -35.87731099 13.71498868 -32.91796875 11.98828125 C-31 11 -31 11 -29 11 C-28.95875 10.154375 -28.9175 9.30875 -28.875 8.4375 C-27.70506353 3.841321 -25.51998881 1.1242992 -22 -2 C-14.30900675 -5.84549663 -6.88653873 -4.68773257 0 0 Z " fill="#F2F5F7" transform="translate(104,13)"/>
<path d="M0 0 C4.0340144 2.30285053 6.32062693 4.97992667 7.6875 9.4375 C8.21517278 13.96477951 7.90530182 18.05143329 6.6875 22.4375 C7.27402344 22.71980469 7.86054687 23.00210938 8.46484375 23.29296875 C10.49862789 24.34024248 12.34566146 25.48729604 14.25 26.75 C32.2452816 37.97641421 54.07512772 41.92447531 74.91015625 37.44921875 C79.26721482 36.35664595 83.4653545 34.96797213 87.6875 33.4375 C88.54988281 33.1384375 89.41226563 32.839375 90.30078125 32.53125 C98.95581744 29.11353918 107.90819146 23.21741977 114.6875 16.875 C117.6875 14.4375 117.6875 14.4375 120.875 13.875 C124.09106481 14.51821296 125.56738363 14.90966894 127.6875 17.4375 C127.9375 21.125 127.9375 21.125 127.6875 24.4375 C126.3675 25.0975 125.0475 25.7575 123.6875 26.4375 C123.6875 27.0975 123.6875 27.7575 123.6875 28.4375 C120.22596154 31.4375 120.22596154 31.4375 117.6875 31.4375 C117.6875 32.0975 117.6875 32.7575 117.6875 33.4375 C116.03217377 34.45616229 114.36489862 35.45560813 112.6875 36.4375 C112.3575 37.0975 112.0275 37.7575 111.6875 38.4375 C109.96714196 39.16534379 108.24513271 39.88975907 106.51171875 40.5859375 C104.47071744 41.44694882 104.47071744 41.44694882 102.25 43.4375 C96.83902419 47.66070064 89.78141583 49.06115304 83.1875 50.5625 C82.12595703 50.81580078 82.12595703 50.81580078 81.04296875 51.07421875 C60.11702784 55.9327096 39.8831933 54.32280928 20.2890625 45.58203125 C18.06205635 44.6022823 15.87255363 43.81257717 13.5625 43.0625 C9.2190834 41.50610905 5.79755472 38.77219826 2.1796875 35.9609375 C-1.72556013 33.57371716 -5.24584434 33.39871252 -9.75 33.5625 C-13.88084477 33.41755808 -17.00819239 32.93459091 -20.3125 30.4375 C-24.81655656 25.16953958 -27.31868285 19.81655093 -26.82421875 12.828125 C-25.75903715 7.85185675 -23.5603899 4.16739788 -19.515625 1.0546875 C-13.18335189 -2.56737272 -6.6903039 -2.8672731 0 0 Z " fill="#F3F6F7" transform="translate(50.3125,161.5625)"/>
<path d="M0 0 C1.88897413 3.20381617 2.24708776 5.55503512 2.23046875 9.25390625 C2.22853516 10.27419922 2.22660156 11.29449219 2.22460938 12.34570312 C2.20624023 13.93801758 2.20624023 13.93801758 2.1875 15.5625 C2.18685547 16.59697266 2.18621094 17.63144531 2.18554688 18.69726562 C2.15117977 24.79551764 1.78939658 30.69892214 0.91918945 36.73803711 C0.7698646 39.0781379 0.7698646 39.0781379 2.41870117 40.68188477 C2.94052979 41.11686279 3.4623584 41.55184082 4 42 C5.34832104 44.69664208 5.16910682 46.86587521 5.1875 49.875 C5.20167969 50.92429688 5.21585938 51.97359375 5.23046875 53.0546875 C5.00504937 55.93547071 4.48964317 57.56240208 3 60 C2.34 60 1.68 60 1 60 C0.7525 60.598125 0.505 61.19625 0.25 61.8125 C-1.49365583 64.8638977 -3.53226461 66.44327278 -6.8125 67.6875 C-11.07413035 68.29630434 -14.90607084 68.36464305 -19 67 C-19 66.34 -19 65.68 -19 65 C-19.59296875 64.74347656 -20.1859375 64.48695313 -20.796875 64.22265625 C-24.65223878 62.08306607 -26.96856342 58.86500597 -29 55 C-29.92127496 50.21890065 -29.62493995 45.15615492 -27 41 C-23.01394738 36.82584152 -19.86851803 33.77837237 -14 33 C-13.67 32.01 -13.34 31.02 -13 30 C-13 30.99 -13 31.98 -13 33 C-12.38511719 33.04898438 -11.77023438 33.09796875 -11.13671875 33.1484375 C-10.32847656 33.22320312 -9.52023438 33.29796875 -8.6875 33.375 C-7.88699219 33.44460937 -7.08648437 33.51421875 -6.26171875 33.5859375 C-4 34 -4 34 -1 36 C-0.0987006 27.91472452 0.12442142 19.94325897 0.0625 11.8125 C0.05798828 10.66974609 0.05347656 9.52699219 0.04882812 8.34960938 C0.03718268 5.5663489 0.02082997 2.78320428 0 0 Z " fill="#13F2B4" transform="translate(205,100)"/>
<path d="M0 0 C4.0340144 2.30285053 6.32062693 4.97992667 7.6875 9.4375 C8.21517278 13.96477951 7.90530182 18.05143329 6.6875 22.4375 C7.6775 22.7675 8.6675 23.0975 9.6875 23.4375 C4.54464286 27.86607143 4.54464286 27.86607143 0.6875 28.4375 C0.6875 29.0975 0.6875 29.7575 0.6875 30.4375 C0.0275 30.4375 -0.6325 30.4375 -1.3125 30.4375 C-0.9825 31.4275 -0.6525 32.4175 -0.3125 33.4375 C-15.12238593 34.03880364 -15.12238593 34.03880364 -20.3125 30.4375 C-24.79179214 25.128339 -27.32062031 19.84393378 -26.82421875 12.828125 C-25.75903715 7.85185675 -23.5603899 4.16739788 -19.515625 1.0546875 C-13.18335189 -2.56737272 -6.6903039 -2.8672731 0 0 Z " fill="#12F2B4" transform="translate(50.3125,161.5625)"/>
<path d="M0 0 C3.56475772 3.47335368 4.61361748 6.07362293 5 11 C5.144375 12.27875 5.28875 13.5575 5.4375 14.875 C5.37846109 20.00154532 2.56031028 23.51691988 -1 27 C-4.87180326 29.8660547 -7.71157217 30.43190604 -12.5 30.4375 C-13.6034375 30.45683594 -14.706875 30.47617187 -15.84375 30.49609375 C-19.64762472 29.8982075 -21.19925218 28.57534517 -24 26 C-24.99 25.34 -25.98 24.68 -27 24 C-28.56343731 21.56798641 -29.03850394 19.75935038 -29.5 16.875 C-29.73686321 13.87947452 -29.73686321 13.87947452 -32 12 C-31.01 11.67 -30.02 11.34 -29 11 C-28.95875 10.154375 -28.9175 9.30875 -28.875 8.4375 C-27.70506353 3.841321 -25.51998881 1.1242992 -22 -2 C-14.30900675 -5.84549663 -6.88653873 -4.68773257 0 0 Z " fill="#12F2B4" transform="translate(104,13)"/>
<path d="M0 0 C4.0340144 2.30285053 6.32062693 4.97992667 7.6875 9.4375 C8.21517278 13.96477951 7.90530182 18.05143329 6.6875 22.4375 C7.6775 22.7675 8.6675 23.0975 9.6875 23.4375 C4.54464286 27.86607143 4.54464286 27.86607143 0.6875 28.4375 C0.6875 29.0975 0.6875 29.7575 0.6875 30.4375 C0.0275 30.4375 -0.6325 30.4375 -1.3125 30.4375 C-0.9825 31.4275 -0.6525 32.4175 -0.3125 33.4375 C-15.12238593 34.03880364 -15.12238593 34.03880364 -20.3125 30.4375 C-24.79179214 25.128339 -27.32062031 19.84393378 -26.82421875 12.828125 C-25.75903715 7.85185675 -23.5603899 4.16739788 -19.515625 1.0546875 C-13.18335189 -2.56737272 -6.6903039 -2.8672731 0 0 Z M-22.3125 7.4375 C-23.73847611 10.28945222 -23.4445252 12.76211175 -23.4375 15.9375 C-23.44007812 17.1028125 -23.44265625 18.268125 -23.4453125 19.46875 C-23.5173431 22.36680786 -23.5173431 22.36680786 -22.3125 24.4375 C-21.6525 24.4375 -20.9925 24.4375 -20.3125 24.4375 C-20.250625 25.05625 -20.18875 25.675 -20.125 26.3125 C-19.49257474 28.62905159 -19.49257474 28.62905159 -17.1875 29.6875 C-12.49547289 30.91150707 -7.94778703 30.92079185 -3.3125 29.4375 C-3.3125 28.7775 -3.3125 28.1175 -3.3125 27.4375 C-2.6525 27.4375 -1.9925 27.4375 -1.3125 27.4375 C2.49623539 23.81624123 5.09761645 20.09238788 5.25 14.75 C4.98462866 11.0089114 4.14520385 8.36783921 1.6875 5.4375 C1.0275 5.4375 0.3675 5.4375 -0.3125 5.4375 C-0.3125 4.7775 -0.3125 4.1175 -0.3125 3.4375 C-2.85533234 3.32878033 -5.39345088 3.24987599 -7.9375 3.1875 C-8.65035156 3.15398437 -9.36320312 3.12046875 -10.09765625 3.0859375 C-15.30355002 2.99041651 -18.17799155 4.00267759 -22.3125 7.4375 Z " fill="#25E7B8" transform="translate(50.3125,161.5625)"/>
<path d="M0 0 C1.88897413 3.20381617 2.24708776 5.55503512 2.23046875 9.25390625 C2.22853516 10.27419922 2.22660156 11.29449219 2.22460938 12.34570312 C2.20624023 13.93801758 2.20624023 13.93801758 2.1875 15.5625 C2.18685547 16.59697266 2.18621094 17.63144531 2.18554688 18.69726562 C2.15117977 24.79551764 1.78939658 30.69892214 0.91918945 36.73803711 C0.7698646 39.0781379 0.7698646 39.0781379 2.41870117 40.68188477 C2.94052979 41.11686279 3.4623584 41.55184082 4 42 C5.34832104 44.69664208 5.16910682 46.86587521 5.1875 49.875 C5.20167969 50.92429688 5.21585938 51.97359375 5.23046875 53.0546875 C5.00504937 55.93547071 4.48964317 57.56240208 3 60 C2.34 60 1.68 60 1 60 C0.7525 60.598125 0.505 61.19625 0.25 61.8125 C-1.49365583 64.8638977 -3.53226461 66.44327278 -6.8125 67.6875 C-11.07413035 68.29630434 -14.90607084 68.36464305 -19 67 C-19 66.34 -19 65.68 -19 65 C-19.59296875 64.74347656 -20.1859375 64.48695313 -20.796875 64.22265625 C-24.65223878 62.08306607 -26.96856342 58.86500597 -29 55 C-29.92127496 50.21890065 -29.62493995 45.15615492 -27 41 C-23.01394738 36.82584152 -19.86851803 33.77837237 -14 33 C-13.67 32.01 -13.34 31.02 -13 30 C-13 30.99 -13 31.98 -13 33 C-12.38511719 33.04898438 -11.77023438 33.09796875 -11.13671875 33.1484375 C-10.32847656 33.22320312 -9.52023438 33.29796875 -8.6875 33.375 C-7.88699219 33.44460937 -7.08648437 33.51421875 -6.26171875 33.5859375 C-4 34 -4 34 -1 36 C-0.0987006 27.91472452 0.12442142 19.94325897 0.0625 11.8125 C0.05798828 10.66974609 0.05347656 9.52699219 0.04882812 8.34960938 C0.03718268 5.5663489 0.02082997 2.78320428 0 0 Z M-19.4375 38.4375 C-19.953125 39.283125 -20.46875 40.12875 -21 41 C-21.99 41.495 -21.99 41.495 -23 42 C-26.11688762 46.91509202 -26.4554332 50.35262826 -26 56 C-25.13734032 58.40557853 -25.13734032 58.40557853 -24 60 C-23.01 60 -22.02 60 -21 60 C-21 60.99 -21 61.98 -21 63 C-16.02427339 65.97111733 -10.61603964 65.76721853 -5 65 C-1.51757609 62.47353559 -0.34773178 61.04319535 1 57 C1.66 56.67 2.32 56.34 3 56 C3 51.38 3 46.76 3 42 C1.68 41.67 0.36 41.34 -1 41 C-1.33 40.01 -1.66 39.02 -2 38 C-7.58897932 35.34523482 -14.80247408 33.80247408 -19.4375 38.4375 Z " fill="#20EBB8" transform="translate(205,100)"/>
<path d="M0 0 C3.56475772 3.47335368 4.61361748 6.07362293 5 11 C5.144375 12.27875 5.28875 13.5575 5.4375 14.875 C5.37846109 20.00154532 2.56031028 23.51691988 -1 27 C-4.87180326 29.8660547 -7.71157217 30.43190604 -12.5 30.4375 C-13.6034375 30.45683594 -14.706875 30.47617187 -15.84375 30.49609375 C-19.64762472 29.8982075 -21.19925218 28.57534517 -24 26 C-24.99 25.34 -25.98 24.68 -27 24 C-28.56343731 21.56798641 -29.03850394 19.75935038 -29.5 16.875 C-29.73686321 13.87947452 -29.73686321 13.87947452 -32 12 C-31.01 11.67 -30.02 11.34 -29 11 C-28.95875 10.154375 -28.9175 9.30875 -28.875 8.4375 C-27.70506353 3.841321 -25.51998881 1.1242992 -22 -2 C-14.30900675 -5.84549663 -6.88653873 -4.68773257 0 0 Z M-23 2 C-25.90694325 5.45690549 -27.1252473 8.93341963 -26.8515625 13.44921875 C-25.82455093 18.54218597 -24.41723155 22.7244916 -20.5 26.25 C-15.04369122 28.97815439 -10.01644821 28.59017465 -4.125 27.4375 C-0.14336893 24.74404369 1.50436757 20.48689729 3 16 C3.27042894 11.22242203 3.07777272 7.35342855 1 3 C-5.38938277 -2.61491213 -15.92803081 -2.09895889 -23 2 Z " fill="#2FDBB4" transform="translate(104,13)"/>
<path d="M0 0 C0.66 0.66 1.32 1.32 2 2 C-2.29 2 -6.58 2 -11 2 C-11 2.66 -11 3.32 -11 4 C-12.98260426 5.68732277 -14.9832342 7.35366057 -17 9 C-18.53266582 12.06533164 -18.10276471 15.26754272 -18.0625 18.625 C-18.05573242 19.68460938 -18.05573242 19.68460938 -18.04882812 20.765625 C-18.03703875 22.51045275 -18.01910324 24.255237 -18 26 C-17.34 26 -16.68 26 -16 26 C-15.7525 26.639375 -15.505 27.27875 -15.25 27.9375 C-14.21977003 30.12330784 -14.21977003 30.12330784 -12.28125 30.625 C-9.5688631 31.07087182 -6.99794841 31.09521367 -4.25 31.0625 C-3.26515625 31.05347656 -2.2803125 31.04445312 -1.265625 31.03515625 C-0.51796875 31.02355469 0.2296875 31.01195312 1 31 C1 30.34 1 29.68 1 29 C1.66 29.33 2.32 29.66 3 30 C2.67 31.32 2.34 32.64 2 34 C-3.37376347 35.71960431 -9.13951431 35.77453835 -14.2890625 33.29296875 C-18.75128727 29.92083085 -21.40949077 24.80491884 -22.546875 19.40234375 C-22.8435543 14.07035739 -21.73600628 10.03395254 -18.609375 5.6953125 C-13.6329888 0.45319694 -7.07401979 -1.26216951 0 0 Z " fill="#32CAAB" transform="translate(46,160)"/>
<path d="M0 0 C0.66 0 1.32 0 2 0 C5.67820393 12.87371375 5.67820393 12.87371375 2.83203125 18.17578125 C0.02172131 22.12755384 -2.57368241 24.86691207 -7 27 C-11.84091333 27.71894752 -17.58165009 28.39018917 -21.95703125 25.875 C-23.3125 24.5 -23.3125 24.5 -25 22 C-21 22 -21 22 -18 24 C-13.25561529 24.47443847 -7.49156 24.684335 -3 23 C-1.69140351 21.30287793 -1.69140351 21.30287793 -1 19 C-0.62875 18.071875 -0.2575 17.14375 0.125 16.1875 C1.09675143 12.64754835 1.2149962 9.65493535 1 6 C0.67 5.67 0.34 5.34 0 5 C-0.04063832 3.33382885 -0.042721 1.66611905 0 0 Z " fill="#31C8AA" transform="translate(105,16)"/>
<path d="M0 0 C2 2 2 2 2.265625 4.6796875 C2.26046875 5.73414063 2.2553125 6.78859375 2.25 7.875 C2.25515625 8.92429688 2.2603125 9.97359375 2.265625 11.0546875 C2.0075764 13.91599111 1.4774449 15.57276909 0 18 C-0.66 18 -1.32 18 -2 18 C-2.2475 18.598125 -2.495 19.19625 -2.75 19.8125 C-4.49365583 22.8638977 -6.53226461 24.44327278 -9.8125 25.6875 C-14.07413035 26.29630434 -17.90607084 26.36464305 -22 25 C-22 24.34 -22 23.68 -22 23 C-23.32 22.34 -24.64 21.68 -26 21 C-25.34 20.67 -24.68 20.34 -24 20 C-23.42765625 20.29648438 -22.8553125 20.59296875 -22.265625 20.8984375 C-19.38543381 22.29880632 -16.93581917 22.41722918 -13.75 22.625 C-12.13351563 22.73714844 -12.13351563 22.73714844 -10.484375 22.8515625 C-9.66453125 22.90054688 -8.8446875 22.94953125 -8 23 C-7.731875 22.360625 -7.46375 21.72125 -7.1875 21.0625 C-6 19 -6 19 -3 18 C-2.26676204 15.98491642 -2.26676204 15.98491642 -2 14 C-1.34 14 -0.68 14 0 14 C0 9.38 0 4.76 0 0 Z " fill="#33C5AA" transform="translate(208,142)"/>
<path d="M0 0 C1.88897413 3.20381617 2.24708776 5.55503512 2.23046875 9.25390625 C2.22853516 10.27419922 2.22660156 11.29449219 2.22460938 12.34570312 C2.20624023 13.93801758 2.20624023 13.93801758 2.1875 15.5625 C2.18685547 16.59697266 2.18621094 17.63144531 2.18554688 18.69726562 C2.14714231 25.51194299 1.72997251 32.22528388 1 39 C1.66 39.33 2.32 39.66 3 40 C3 40.66 3 41.32 3 42 C-0.6994863 41.36215753 -0.6994863 41.36215753 -2.21875 39.53125 C-4.83408663 37.28297816 -7.30704288 37.24760834 -10.6875 36.8125 C-11.86699219 36.65394531 -13.04648438 36.49539062 -14.26171875 36.33203125 C-15.16535156 36.22246094 -16.06898438 36.11289063 -17 36 C-15.515 35.505 -15.515 35.505 -14 35 C-14 33.35 -14 31.7 -14 30 C-13.67 30.99 -13.34 31.98 -13 33 C-12.38511719 33.04898438 -11.77023438 33.09796875 -11.13671875 33.1484375 C-10.32847656 33.22320312 -9.52023438 33.29796875 -8.6875 33.375 C-7.88699219 33.44460937 -7.08648437 33.51421875 -6.26171875 33.5859375 C-4 34 -4 34 -1 36 C-0.0987006 27.91472452 0.12442142 19.94325897 0.0625 11.8125 C0.05798828 10.66974609 0.05347656 9.52699219 0.04882812 8.34960938 C0.03718268 5.5663489 0.02082997 2.78320428 0 0 Z " fill="#59B0A4" transform="translate(205,100)"/>
<path d="M0 0 C2.23551759 3.35327639 2.17283528 3.90743657 1.625 7.6875 C1.45871094 8.89986328 1.45871094 8.89986328 1.2890625 10.13671875 C1.19367187 10.75160156 1.09828125 11.36648437 1 12 C1.99 12.33 2.98 12.66 4 13 C-1.14285714 17.42857143 -1.14285714 17.42857143 -5 18 C-5 18.66 -5 19.32 -5 20 C-5.66 20 -6.32 20 -7 20 C-6.67 20.99 -6.34 21.98 -6 23 C-6.66 23 -7.32 23 -8 23 C-7.6565888 16.36071685 -6.3091149 14.17093788 -2 9 C-1.34119355 6.29989176 -1.18911698 3.78947542 -1 1 C-0.67 0.67 -0.34 0.34 0 0 Z " fill="#2AE2B6" transform="translate(56,172)"/>
<path d="M0 0 C0 3.75947472 -0.04212302 6.79224207 -2.4375 9.8125 C-4 11 -4 11 -6 11 C-6.33 13.64 -6.66 16.28 -7 19 C-7.99 19 -8.98 19 -10 19 C-9.938125 19.7425 -9.87625 20.485 -9.8125 21.25 C-10.03750346 24.55005079 -10.98861316 25.44708593 -13 28 C-13.72351427 29.98014432 -14.40265389 31.97821315 -15 34 C-16.24366879 30.49365637 -15.77319619 28.68459047 -14.3125 25.3125 C-13.93222656 24.43078125 -13.55195313 23.5490625 -13.16015625 22.640625 C-12.77730469 21.76921875 -12.39445312 20.8978125 -12 20 C-11.70996094 19.25234375 -11.41992188 18.5046875 -11.12109375 17.734375 C-8.45462728 11.08614471 -4.35079843 5.64970185 0 0 Z " fill="#344759" transform="translate(42,64)"/>
<path d="M0 0 C0.33 0 0.66 0 1 0 C1.6022823 10.59371553 2.13113869 21.1244608 1.9375 31.73828125 C2.00440625 35.22995111 2.44121257 38.55559934 3 42 C-1.40154905 34.45448734 -1.28611133 26.33481397 -1.1875 17.875 C-1.18685547 16.81667969 -1.18621094 15.75835937 -1.18554688 14.66796875 C-1.1573721 9.67790365 -1.05982035 4.90060931 0 0 Z " fill="#405163" transform="translate(25,98)"/>
<path d="M0 0 C3.06406804 0.218862 4.11563571 1.10954962 6.375 3.25 C9.03289985 7.5717033 7.75321921 12.12495547 6.83984375 16.859375 C5.41284099 22.1957016 3.71906951 25.85395366 -1 29 C-3.1875 28.625 -3.1875 28.625 -5 28 C-4.195625 27.38125 -3.39125 26.7625 -2.5625 26.125 C0.03874519 24.25835959 0.03874519 24.25835959 1 22 C1.66 22 2.32 22 3 22 C4.02345486 18.62097444 4.1338035 15.52139987 4.125 12 C4.12757813 10.96875 4.13015625 9.9375 4.1328125 8.875 C3.97691772 5.34646956 3.97691772 5.34646956 3 2 C2.01 1.67 1.02 1.34 0 1 C0 0.67 0 0.34 0 0 Z " fill="#0A5857" transform="translate(205,138)"/>
<path d="M0 0 C0.7425 0.763125 1.485 1.52625 2.25 2.3125 C4.823554 4.95571199 4.823554 4.95571199 7.3125 6.6875 C7.869375 7.120625 8.42625 7.55375 9 8 C9 8.66 9 9.32 9 10 C13.62 10 18.24 10 23 10 C23 10.66 23 11.32 23 12 C18.19255289 13.60248237 14.11766164 13.9375406 9.4765625 11.8828125 C7.27017139 10.65085279 5.12027086 9.37424963 3 8 C3 7.01 3 6.02 3 5 C1.68 5.33 0.36 5.66 -1 6 C-0.67 4.02 -0.34 2.04 0 0 Z " fill="#00353E" transform="translate(177,157)"/>
<path d="M0 0 C2.5 2.0625 2.5 2.0625 4 4 C3.34 3.835 2.68 3.67 2 3.5 C-4.9836462 2.33605897 -9.80934432 2.65704593 -16 6 C-16.99 7.485 -16.99 7.485 -18 9 C-18.66 9 -19.32 9 -20 9 C-20.33 9.66 -20.66 10.32 -21 11 C-21.33 9.68 -21.66 8.36 -22 7 C-21.01 7 -20.02 7 -19 7 C-18.75507812 6.38769531 -18.51015625 5.77539062 -18.2578125 5.14453125 C-14.54208543 -1.19066801 -6.39314542 -1.73373435 0 0 Z " fill="#04464B" transform="translate(97,7)"/>
<path d="M0 0 C0.33 0 0.66 0 1 0 C1 8.91 1 17.82 1 27 C3.31 27 5.62 27 8 27 C8.66 27.33 9.32 27.66 10 28 C10 28.66 10 29.32 10 30 C10.66 30 11.32 30 12 30 C12 30.66 12 31.32 12 32 C8.04 31.01 4.08 30.02 0 29 C0 19.43 0 9.86 0 0 Z " fill="#B3D5D6" transform="translate(192,104)"/>
<path d="M0 0 C2 2 2 2 2.265625 4.6796875 C2.26046875 5.73414063 2.2553125 6.78859375 2.25 7.875 C2.25515625 8.92429688 2.2603125 9.97359375 2.265625 11.0546875 C2.0075764 13.91599111 1.4774449 15.57276909 0 18 C-0.66 18 -1.32 18 -2 18 C-2.33 18.99 -2.66 19.98 -3 21 C-4.32 20.67 -5.64 20.34 -7 20 C-6.360625 19.7525 -5.72125 19.505 -5.0625 19.25 C-2.81258459 18.18437567 -2.81258459 18.18437567 -2.25 15.875 C-2.1675 15.25625 -2.085 14.6375 -2 14 C-1.34 14 -0.68 14 0 14 C0 9.38 0 4.76 0 0 Z " fill="#32D4B0" transform="translate(208,142)"/>
<path d="M0 0 C0.97810945 3.40526993 0.81907717 5.54167419 0 9 C0 9.66 0 10.32 0 11 C-1.390625 12.40234375 -1.390625 12.40234375 -3.25 13.9375 C-3.88550781 14.46472656 -4.52101562 14.99195313 -5.17578125 15.53515625 C-7.08575939 17.06886461 -9.01191866 18.56858143 -11 20 C-11.66 19.67 -12.32 19.34 -13 19 C-12.08552154 17.91481889 -11.16829593 16.83195262 -10.25 15.75 C-9.70214844 15.10417969 -9.15429688 14.45835937 -8.58984375 13.79296875 C-7 12 -7 12 -4.8125 10.0625 C-2.14931781 7.03198234 -1.27182145 3.81546434 0 0 Z " fill="#2D4051" transform="translate(152,132)"/>
<path d="M0 0 C5.29615765 4.85481118 8.50464115 10.98573284 9.21923828 18.21923828 C9.4236483 23.15692156 9.26299133 28.06745157 9 33 C8.67 33 8.34 33 8 33 C7.97421875 32.03320312 7.9484375 31.06640625 7.921875 30.0703125 C7.45964075 16.98923938 7.45964075 16.98923938 1 6 C0.60235737 4.01178687 0.26224651 2.01055661 0 0 Z " fill="#A0ADBA" transform="translate(146,90)"/>
<path d="M0 0 C1.65 0 3.3 0 5 0 C5.67305018 1.60149886 6.33822227 3.20631029 7 4.8125 C7.37125 5.70582031 7.7425 6.59914063 8.125 7.51953125 C9 10 9 10 9 13 C7.125 12.75 7.125 12.75 5 12 C3.32823634 9.62433586 2.96171703 7.76073146 2.5 4.875 C2.26313679 1.87947452 2.26313679 1.87947452 0 0 Z " fill="#5AE3C1" transform="translate(72,25)"/>
<path d="M0 0 C0.66 0 1.32 0 2 0 C1.67 0.7425 1.34 1.485 1 2.25 C-0.40324139 7.5121552 -0.15769562 12.5857837 0 18 C-0.66 18 -1.32 18 -2 18 C-4 16 -4 16 -4.1953125 13.6171875 C-4.17210938 12.71226562 -4.14890625 11.80734375 -4.125 10.875 C-4.10695313 9.96492187 -4.08890625 9.05484375 -4.0703125 8.1171875 C-4.04710938 7.41851562 -4.02390625 6.71984375 -4 6 C-3.34 6 -2.68 6 -2 6 C-2 4.68 -2 3.36 -2 2 C-1.34 2 -0.68 2 0 2 C0 1.34 0 0.68 0 0 Z " fill="#034047" transform="translate(25,166)"/>
<path d="M0 0 C0.66 0.66 1.32 1.32 2 2 C-2.29 2 -6.58 2 -11 2 C-11 2.66 -11 3.32 -11 4 C-12.98260426 5.68732277 -14.9832342 7.35366057 -17 9 C-17.33 9.66 -17.66 10.32 -18 11 C-18.66 11 -19.32 11 -20 11 C-19.71349017 7.56188206 -19.26566773 6.25828807 -16.75 3.8125 C-11.32717164 0.23836313 -6.47156702 -0.86457084 0 0 Z " fill="#29B59A" transform="translate(46,160)"/>
<path d="M0 0 C0.53625 0.2475 1.0725 0.495 1.625 0.75 C0.965 0.75 0.305 0.75 -0.375 0.75 C-0.375 1.41 -0.375 2.07 -0.375 2.75 C-1.90625 4.2578125 -1.90625 4.2578125 -3.875 5.875 C-4.5246875 6.41382813 -5.174375 6.95265625 -5.84375 7.5078125 C-6.3490625 7.91773438 -6.854375 8.32765625 -7.375 8.75 C-7.045 9.41 -6.715 10.07 -6.375 10.75 C-7.365 10.42 -8.355 10.09 -9.375 9.75 C-10.0625 7.6875 -10.0625 7.6875 -10.375 5.75 C-9.715 5.75 -9.055 5.75 -8.375 5.75 C-8.375 5.09 -8.375 4.43 -8.375 3.75 C-3.23290173 -0.34030544 -3.23290173 -0.34030544 0 0 Z " fill="#CCF3F0" transform="translate(59.375,186.25)"/>
<path d="M0 0 C0.33 0.99 0.66 1.98 1 3 C0.54625 3.845625 0.0925 4.69125 -0.375 5.5625 C-2.47992973 10.01523596 -2.72102533 14.13237308 -3 19 C-5 17 -5 17 -5.265625 15.01171875 C-5.22951664 9.64060003 -5.12273808 5.36766939 -1.375 1.1875 C-0.92125 0.795625 -0.4675 0.40375 0 0 Z " fill="#2FBDA3" transform="translate(181,138)"/>
<path d="M0 0 C0.66 0.33 1.32 0.66 2 1 C1.3503125 1.7425 1.3503125 1.7425 0.6875 2.5 C-0.88675638 4.83223167 -1.54465987 6.54464599 -2.375 9.1875 C-3.10546875 11.29296875 -3.10546875 11.29296875 -4 13 C-6.6875 14 -6.6875 14 -9 14 C-8.34 13.67 -7.68 13.34 -7 13 C-6.9175 12.13375 -6.835 11.2675 -6.75 10.375 C-5.73027214 5.78622465 -3.20731814 3.31520957 0 0 Z " fill="#2DBEA2" transform="translate(82,11)"/>
<path d="M0 0 C3.00130824 0.61390396 5.28468238 1.16229766 7.32421875 3.55078125 C8.96865408 6.24534721 10.07758299 8.24356583 9.75 11.4375 C9.5025 11.953125 9.255 12.46875 9 13 C4 7.25 4 7.25 4 5 C3.34 5 2.68 5 2 5 C1.34 3.35 0.68 1.7 0 0 Z " fill="#2ABFA2" transform="translate(48,162)"/>
<path d="M0 0 C0.99 0.33 1.98 0.66 3 1 C2.67 1.66 2.34 2.32 2 3 C2.66 3 3.32 3 4 3 C4.33 2.01 4.66 1.02 5 0 C5.33 0.66 5.66 1.32 6 2 C4.23772368 5.61730402 2.35673579 7.80075931 -1 10 C-1.33 7.36 -1.66 4.72 -2 2 C-1.34 2 -0.68 2 0 2 C0 1.34 0 0.68 0 0 Z " fill="#182D46" transform="translate(27,52)"/>
<path d="M0 0 C2.46276311 0.43977913 3.84395369 0.86859258 5.78125 2.5 C8.5331056 4.36040942 10.45721746 4.49150104 13.75 4.6875 C15.22726563 4.78611328 15.22726563 4.78611328 16.734375 4.88671875 C17.48203125 4.92410156 18.2296875 4.96148437 19 5 C19 5.99 19 6.98 19 8 C18.24074219 7.9278125 17.48148438 7.855625 16.69921875 7.78125 C15.70535156 7.6884375 14.71148437 7.595625 13.6875 7.5 C12.20830078 7.36078125 12.20830078 7.36078125 10.69921875 7.21875 C7.95297861 6.95961143 7.95297861 6.95961143 5 7 C4.67 6.01 4.34 5.02 4 4 C3.34 3.67 2.68 3.34 2 3 C2 2.34 2 1.68 2 1 C1.34 0.67 0.68 0.34 0 0 Z " fill="#054249" transform="translate(77,38)"/>
<path d="M0 0 C3 2 3 2 3.73046875 3.98828125 C4.52700911 8.03906341 5.26799997 11.84600043 5 16 C4.34 16.33 3.68 16.66 3 17 C2.34 16.67 1.68 16.34 1 16 C1.01160156 15.09636719 1.02320313 14.19273437 1.03515625 13.26171875 C1.04417969 12.08222656 1.05320313 10.90273437 1.0625 9.6875 C1.07410156 8.51574219 1.08570313 7.34398437 1.09765625 6.13671875 C1.14899898 2.96940805 1.14899898 2.96940805 0 0 Z " fill="#07494C" transform="translate(56,168)"/>
<path d="M0 0 C0.680625 0.28875 1.36125 0.5775 2.0625 0.875 C-3.08035714 5.30357143 -3.08035714 5.30357143 -6.9375 5.875 C-6.9375 6.535 -6.9375 7.195 -6.9375 7.875 C-7.5975 7.875 -8.2575 7.875 -8.9375 7.875 C-8.6075 8.865 -8.2775 9.855 -7.9375 10.875 C-8.5975 10.875 -9.2575 10.875 -9.9375 10.875 C-10.375 8.75 -10.375 8.75 -9.9375 5.875 C-7.13830412 2.42740281 -4.56579113 -0.19428898 0 0 Z " fill="#61DEC1" transform="translate(57.9375,184.125)"/>
<path d="M0 0 C6.51791392 -0.3540919 11.17521449 -0.03901852 17 3 C17 3.66 17 4.32 17 5 C15.88625 4.505 15.88625 4.505 14.75 4 C9.4878448 2.59675861 4.4142163 2.84230438 -1 3 C-0.67 2.01 -0.34 1.02 0 0 Z " fill="#003841" transform="translate(35,158)"/>
<path d="M0 0 C0.66 0 1.32 0 2 0 C4.52631579 9.31578947 4.52631579 9.31578947 4 13 C2.48046875 14.63671875 2.48046875 14.63671875 1 16 C1.01160156 15.28972656 1.02320312 14.57945313 1.03515625 13.84765625 C1.04417969 12.92855469 1.05320312 12.00945313 1.0625 11.0625 C1.07990234 9.68771484 1.07990234 9.68771484 1.09765625 8.28515625 C1.25949049 6.03406673 1.25949049 6.03406673 0 5 C-0.04063832 3.33382885 -0.042721 1.66611905 0 0 Z " fill="#32D7B2" transform="translate(105,16)"/>
<path d="M0 0 C-2.86698342 3.49413605 -4.84150148 5.28836874 -9.3125 5.8125 C-11.1378125 5.9053125 -11.1378125 5.9053125 -13 6 C-12.34 5.54625 -11.68 5.0925 -11 4.625 C-10.34 4.08875 -9.68 3.5525 -9 3 C-9 2.34 -9 1.68 -9 1 C-3.375 -1.125 -3.375 -1.125 0 0 Z " fill="#24384F" transform="translate(129,160)"/>
<path d="M0 0 C3.36179774 1.44077046 5.59156268 3.24750021 8 6 C8 6.66 8 7.32 8 8 C6.35 8 4.7 8 3 8 C2.67 7.01 2.34 6.02 2 5 C2.33 4.34 2.66 3.68 3 3 C2.01 3 1.02 3 0 3 C0 2.01 0 1.02 0 0 Z " fill="#344559" transform="translate(166,56)"/>
<path d="M0 0 C2.9041227 4.35618406 4.19768998 8.1878419 3.625 13.4375 C3.41875 14.283125 3.2125 15.12875 3 16 C-0.13107836 12.61416198 -0.33550778 10.28890538 -0.1875 5.75 C-0.14689453 4.13351563 -0.14689453 4.13351563 -0.10546875 2.484375 C-0.07066406 1.66453125 -0.03585938 0.8446875 0 0 Z " fill="#3C4E60" transform="translate(188,90)"/>
<path d="M0 0 C3 3 6 6 9 9 C6.03 8.505 6.03 8.505 3 8 C3 7.01 3 6.02 3 5 C1.68 5.33 0.36 5.66 -1 6 C-0.67 4.02 -0.34 2.04 0 0 Z " fill="#0B5B59" transform="translate(177,157)"/>
<path d="M0 0 C0.33 0 0.66 0 1 0 C1.31490911 4.61866698 0.8791071 6.45648356 -2 10 C-2.72351427 11.98014432 -3.40265389 13.97821315 -4 16 C-5.34084698 12.35085947 -4.64228567 10.38045311 -3.125 6.875 C-2.75632812 6.00617188 -2.38765625 5.13734375 -2.0078125 4.2421875 C-1.36643873 2.81525516 -0.69964222 1.39928445 0 0 Z " fill="#536271" transform="translate(31,82)"/>
<path d="M0 0 C1.65 0 3.3 0 5 0 C5.33 1.32 5.66 2.64 6 4 C7.32 4.33 8.64 4.66 10 5 C10 5.99 10 6.98 10 8 C6.05205855 6.32971708 3.18203882 3.8204435 0 1 C0 0.67 0 0.34 0 0 Z " fill="#3A4B5E" transform="translate(166,37)"/>
<path d="M0 0 C0.8971875 0.5259375 0.8971875 0.5259375 1.8125 1.0625 C-2.49519231 4.13942308 -2.49519231 4.13942308 -6 3.75 C-6.721875 3.523125 -7.44375 3.29625 -8.1875 3.0625 C-5.67391791 0.30952914 -3.81682031 -1.63578013 0 0 Z " fill="#11273D" transform="translate(153.1875,185.9375)"/>
<path d="M0 0 C2.97 0.495 2.97 0.495 6 1 C3.12050853 3.23960447 0.23257974 5.29864224 -3 7 C-3.66 6.67 -4.32 6.34 -5 6 C-4.67 5.01 -4.34 4.02 -4 3 C-1.9375 2.3125 -1.9375 2.3125 0 2 C0 1.34 0 0.68 0 0 Z " fill="#3C4D5F" transform="translate(64,25)"/>
<path d="M0 0 C3.2144374 0.22960267 4.08102784 1.08759767 6.3125 3.5 C8.50643712 8.0503881 7.98787071 11.16802372 7 16 C6.67 16 6.34 16 6 16 C5.86722656 15.32453125 5.73445312 14.6490625 5.59765625 13.953125 C5.42105469 13.06109375 5.24445313 12.1690625 5.0625 11.25 C4.88847656 10.36828125 4.71445313 9.4865625 4.53515625 8.578125 C4.35855469 7.72734375 4.18195313 6.8765625 4 6 C3.87496094 5.25234375 3.74992188 4.5046875 3.62109375 3.734375 C3.41613281 3.16203125 3.21117187 2.5896875 3 2 C2.01 1.67 1.02 1.34 0 1 C0 0.67 0 0.34 0 0 Z " fill="#04454D" transform="translate(205,138)"/>
<path d="M0 0 C-0.66 0 -1.32 0 -2 0 C-2 0.66 -2 1.32 -2 2 C-3.32 1.67 -4.64 1.34 -6 1 C-6 1.66 -6 2.32 -6 3 C-8.97 3 -11.94 3 -15 3 C-12.41464321 1.27642881 -10.96188386 0.55264982 -8.0625 -0.1875 C-7.39347656 -0.36667969 -6.72445312 -0.54585937 -6.03515625 -0.73046875 C-3.75319112 -1.03268678 -2.17973341 -0.68756692 0 0 Z " fill="#354658" transform="translate(140,211)"/>
<path d="M0 0 C4.73045822 4.24528302 4.73045822 4.24528302 5.9375 7.625 C6 10 6 10 4 13 C3 10 3 10 4 7 C3.34 7 2.68 7 2 7 C1.34 4.69 0.68 2.38 0 0 Z " fill="#36475B" transform="translate(176,67)"/>
<path d="M0 0 C0.99 0.66 1.98 1.32 3 2 C0.63379989 4.61527381 -1.942048 6.26440562 -5 8 C-4.49396008 5.83125748 -4.00016187 4.00032373 -3 2 C-2.01 2 -1.02 2 0 2 C0 1.34 0 0.68 0 0 Z " fill="#213349" transform="translate(48,35)"/>
<path d="M0 0 C0.33 0 0.66 0 1 0 C1.05397335 2.4377963 1.09365616 4.87439685 1.125 7.3125 C1.14175781 8.00279297 1.15851562 8.69308594 1.17578125 9.40429688 C1.21217794 13.17135396 1.14378864 14.78431704 -1 18 C-1.33 16.35 -1.66 14.7 -2 13 C-1.34 13 -0.68 13 0 13 C0 8.71 0 4.42 0 0 Z " fill="#2C4053" transform="translate(61,112)"/>
<path d="M0 0 C2.875 0.1875 2.875 0.1875 6 1 C7.375 3.5625 7.375 3.5625 8 6 C7.01 6.33 6.02 6.66 5 7 C3.35 4.69 1.7 2.38 0 0 Z " fill="#1C3146" transform="translate(144,87)"/>
<path d="M0 0 C0.80566406 0.17144531 1.61132812 0.34289062 2.44140625 0.51953125 C4.4375 1.1875 4.4375 1.1875 5.4375 3.1875 C4.32375 3.001875 3.21 2.81625 2.0625 2.625 C-1.38818861 1.87069343 -1.38818861 1.87069343 -3.5625 3.1875 C-4.5525 2.8575 -5.5425 2.5275 -6.5625 2.1875 C-6.5625 1.5275 -6.5625 0.8675 -6.5625 0.1875 C-3.9640401 -1.11172995 -2.80288549 -0.62536289 0 0 Z " fill="#34475E" transform="translate(66.5625,204.8125)"/>
<path d="M0 0 C0 0.66 0 1.32 0 2 C0.66 2.33 1.32 2.66 2 3 C0.741875 2.87625 -0.51625 2.7525 -1.8125 2.625 C-2.87404297 2.52058594 -2.87404297 2.52058594 -3.95703125 2.4140625 C-6 2 -6 2 -9 0 C-5.52176885 -1.15941038 -3.54104422 -0.70820884 0 0 Z " fill="#394A5E" transform="translate(86,195)"/>
<path d="M0 0 C0 0.66 0 1.32 0 2 C-0.99 2 -1.98 2 -3 2 C-3.33 2.99 -3.66 3.98 -4 5 C-5.65 5 -7.3 5 -9 5 C-4.16129032 0 -4.16129032 0 0 0 Z " fill="#2AB9A0" transform="translate(191,133)"/>
<path d="M0 0 C1.32 0.33 2.64 0.66 4 1 C0.04 4.465 0.04 4.465 -4 8 C-4.33 7.01 -4.66 6.02 -5 5 C-4.34 5 -3.68 5 -3 5 C-3 4.01 -3 3.02 -3 2 C-2.01 1.34 -1.02 0.68 0 0 Z " fill="#014247" transform="translate(182,134)"/>
<path d="M0 0 C0.66 0.33 1.32 0.66 2 1 C1.34 2.98 0.68 4.96 0 7 C-0.99 6.67 -1.98 6.34 -3 6 C-3.33 5.01 -3.66 4.02 -4 3 C-2.68 2.01 -1.36 1.02 0 0 Z " fill="#293C54" transform="translate(62,45)"/>
<path d="M0 0 C6.0546875 -0.1953125 6.0546875 -0.1953125 8 0 C8.66 0.66 9.32 1.32 10 2 C6.78548731 3.60725635 3.56387464 3.05748185 0 3 C0 2.01 0 1.02 0 0 Z " fill="#20354A" transform="translate(128,19)"/>
<path d="M0 0 C0.33 1.32 0.66 2.64 1 4 C-3.75 8 -3.75 8 -6 8 C-4.55746343 4.63408134 -2.66735273 2.48952921 0 0 Z " fill="#36485D" transform="translate(49,56)"/>
<path d="M0 0 C0.66 0 1.32 0 2 0 C1.38722388 2.96175123 0.74627478 4.38058783 -1 7 C-3.125 7.6875 -3.125 7.6875 -5 8 C-4.67 7.01 -4.34 6.02 -4 5 C-3.34 5 -2.68 5 -2 5 C-1.34 3.35 -0.68 1.7 0 0 Z " fill="#1EECB5" transform="translate(103,32)"/>
<path d="M0 0 C2.97 0 5.94 0 9 0 C9.33 1.32 9.66 2.64 10 4 C6.7 3.01 3.4 2.02 0 1 C0 0.67 0 0.34 0 0 Z " fill="#304150" transform="translate(136,22)"/>
<path d="M0 0 C-1 3 -1 3 -4 5 C-6.1875 4.625 -6.1875 4.625 -8 4 C-2.25 0 -2.25 0 0 0 Z " fill="#CBD6DC" transform="translate(154,188)"/>
<path d="M0 0 C0.33 0.99 0.66 1.98 1 3 C-0.32 4.32 -1.64 5.64 -3 7 C-3.99 6.34 -4.98 5.68 -6 5 C-5.01 4.67 -4.02 4.34 -3 4 C-3 3.34 -3 2.68 -3 2 C-2.01 1.34 -1.02 0.68 0 0 Z " fill="#37465B" transform="translate(177,186)"/>
<path d="M0 0 C0.99 0 1.98 0 3 0 C2.67 1.98 2.34 3.96 2 6 C1.01 6 0.02 6 -1 6 C-1.042721 4.33388095 -1.04063832 2.66617115 -1 1 C-0.67 0.67 -0.34 0.34 0 0 Z " fill="#293D54" transform="translate(33,77)"/>
<path d="M0 0 C-1.45381897 0.69699552 -2.91322953 1.38233866 -4.375 2.0625 C-5.18710938 2.44535156 -5.99921875 2.82820312 -6.8359375 3.22265625 C-7.55007812 3.47917969 -8.26421875 3.73570312 -9 4 C-9.66 3.67 -10.32 3.34 -11 3 C-9.08400609 0.55178556 -8.02756971 0.00675177 -4.9375 -0.75 C-2 -1 -2 -1 0 0 Z " fill="#94A0AC" transform="translate(151,206)"/>
<path d="M0 0 C1.32 0.66 2.64 1.32 4 2 C0.38026598 3.31626692 -2.09567131 4 -6 4 C-6 3.34 -6 2.68 -6 2 C-4.02 2 -2.04 2 0 2 C0 1.34 0 0.68 0 0 Z " fill="#293B4E" transform="translate(134,194)"/>
<path d="M0 0 C0.66 0.33 1.32 0.66 2 1 C1.67 2.32 1.34 3.64 1 5 C-1.97 4.505 -1.97 4.505 -5 4 C-4.67 3.34 -4.34 2.68 -4 2 C-2.68 2 -1.36 2 0 2 C0 1.34 0 0.68 0 0 Z " fill="#2BDBB0" transform="translate(47,189)"/>
<path d="M0 0 C1.5 1.3125 1.5 1.3125 3 3 C3 3.99 3 4.98 3 6 C3.99 6 4.98 6 6 6 C6 6.66 6 7.32 6 8 C4.125 7.6875 4.125 7.6875 2 7 C0 4 0 4 0 0 Z " fill="#32E0B8" transform="translate(178,154)"/>
<path d="M0 0 C0.99 0 1.98 0 3 0 C2.01 2.97 1.02 5.94 0 9 C-2 5 -2 5 -1.125 2.25 C-0.75375 1.5075 -0.3825 0.765 0 0 Z " fill="#283B4C" transform="translate(16,76)"/>
<path d="M0 0 C-1.65 1.32 -3.3 2.64 -5 4 C-5.66 3.34 -6.32 2.68 -7 2 C-5.26578631 -1.46842738 -3.40984787 -1.13661596 0 0 Z " fill="#203247" transform="translate(163,181)"/>
<path d="M0 0 C0 3 0 3 -1.3125 4.38671875 C-2.875 5.59114583 -4.4375 6.79557292 -6 8 C-6 5 -6 5 -4.6875 3.61328125 C-3.125 2.40885417 -1.5625 1.20442708 0 0 Z " fill="#B9C4CB" transform="translate(79,80)"/>
<path d="M0 0 C1 2 1 2 0.25 4.5625 C-1 7 -1 7 -4 8 C-2.87548273 5.0280615 -1.77706209 2.66559313 0 0 Z " fill="#B5C1CA" transform="translate(25,64)"/>
<path d="M0 0 C0.66 0.33 1.32 0.66 2 1 C0.02 1.99 0.02 1.99 -2 3 C-2 3.66 -2 4.32 -2 5 C-3.65 5 -5.3 5 -7 5 C-4.88437775 2.67281553 -2.94982021 1.14186589 0 0 Z " fill="#485967" transform="translate(73,39)"/>
<path d="M0 0 C2.475 0.495 2.475 0.495 5 1 C5 1.99 5 2.98 5 4 C5.66 4 6.32 4 7 4 C6.67 4.99 6.34 5.98 6 7 C6 6.34 6 5.68 6 5 C5.01 4.67 4.02 4.34 3 4 C3 3.34 3 2.68 3 2 C2.01 1.67 1.02 1.34 0 1 C0 0.67 0 0.34 0 0 Z " fill="#095957" transform="translate(101,11)"/>
</svg>
